<svg width="14" height="19" viewBox="0 0 14 19" fill="none" xmlns="http://www.w3.org/2000/svg">
<path d="M11.9526 2.05193C10.6336 0.750899 8.85532 0.0214844 7.0026 0.0214844C5.14988 0.0214844 3.37165 0.750899 2.0526 2.05193C-0.979397 5.08693 0.352603 8.73793 1.6206 11.2209C1.7966 11.5639 1.9936 11.8989 2.1996 12.2259L6.1576 18.5309C6.24759 18.6743 6.37251 18.7925 6.52066 18.8744C6.6688 18.9564 6.83532 18.9993 7.0046 18.9993C7.17389 18.9993 7.34041 18.9564 7.48855 18.8744C7.63669 18.7925 7.76161 18.6743 7.8516 18.5309L11.8516 12.1609C12.0276 11.8779 12.1986 11.5879 12.3516 11.2919C13.6386 8.78793 15.0006 5.09993 11.9526 2.05193ZM10.5686 10.3769C10.4426 10.6239 10.2996 10.8649 10.1526 11.0989L7.0006 16.1199L3.8886 11.1639C3.7146 10.8869 3.5466 10.6039 3.3976 10.3119C1.7926 7.16693 1.8126 5.11893 3.4636 3.46593C4.40782 2.53913 5.67804 2.0199 7.0011 2.0199C8.32417 2.0199 9.59439 2.53913 10.5386 3.46593C12.2006 5.12893 12.2096 7.19993 10.5686 10.3769Z" fill="white"/>
<path d="M7 4C6.40666 4 5.82664 4.17595 5.33329 4.50559C4.83994 4.83524 4.45543 5.30377 4.22836 5.85195C4.0013 6.40013 3.94189 7.00333 4.05765 7.58527C4.1734 8.16721 4.45912 8.70176 4.87868 9.12132C5.29824 9.54088 5.83279 9.8266 6.41473 9.94236C6.99667 10.0581 7.59987 9.9987 8.14805 9.77164C8.69623 9.54458 9.16477 9.16006 9.49441 8.66671C9.82405 8.17336 10 7.59334 10 7C10 6.20435 9.68393 5.44129 9.12132 4.87868C8.55871 4.31607 7.79565 4 7 4ZM7 8C6.80222 8 6.60888 7.94135 6.44443 7.83147C6.27998 7.72159 6.15181 7.56541 6.07612 7.38268C6.00043 7.19996 5.98063 6.99889 6.01922 6.80491C6.0578 6.61093 6.15304 6.43275 6.2929 6.29289C6.43275 6.15304 6.61093 6.0578 6.80491 6.01921C6.99889 5.98063 7.19996 6.00043 7.38269 6.07612C7.56541 6.15181 7.72159 6.27998 7.83147 6.44443C7.94135 6.60888 8 6.80222 8 7C8 7.26522 7.89464 7.51957 7.70711 7.70711C7.51957 7.89464 7.26522 8 7 8Z" fill="white"/>
</svg>
