<svg width="80" height="80" viewBox="0 0 80 80" fill="none" xmlns="http://www.w3.org/2000/svg">
<path d="M39.9994 6.66675C33.4067 6.66675 26.962 8.62171 21.4804 12.2844C15.9987 15.9471 11.7263 21.1531 9.20338 27.244C6.68046 33.3348 6.02035 40.0371 7.30652 46.5031C8.5927 52.9691 11.7674 58.9086 16.4291 63.5703C21.0909 68.2321 27.0303 71.4068 33.4964 72.6929C39.9624 73.9791 46.6646 73.319 52.7555 70.7961C58.8463 68.2732 64.0523 64.0007 67.715 58.5191C71.3777 53.0375 73.3327 46.5928 73.3327 40.0001C73.323 31.1625 69.808 22.6897 63.5589 16.4406C57.3098 10.1915 48.8369 6.67645 39.9994 6.66675ZM39.9994 66.6668C34.7252 66.6668 29.5695 65.1028 25.1842 62.1726C20.7988 59.2424 17.3809 55.0777 15.3626 50.205C13.3442 45.3323 12.8162 39.9705 13.8451 34.7977C14.874 29.6248 17.4138 24.8733 21.1432 21.1439C24.8726 17.4145 29.6241 14.8747 34.797 13.8458C39.9698 12.8169 45.3316 13.345 50.2043 15.3633C55.077 17.3816 59.2417 20.7996 62.1719 25.1849C65.1021 29.5702 66.666 34.7259 66.666 40.0001C66.6581 47.0701 63.846 53.8482 58.8468 58.8475C53.8475 63.8467 47.0694 66.6588 39.9994 66.6668Z" fill="#C5010A"/>
<path d="M30 21.4868V58.5135L59.6233 40.0002L30 21.4868ZM36.6667 33.5135L47.0433 40.0002L36.6667 46.4868V33.5135Z" fill="#C5010A"/>
</svg>
